<svg xmlns="http://www.w3.org/2000/svg" xmlns:xlink="http://www.w3.org/1999/xlink" xmlns:inkscape="http://www.inkscape.org/namespaces/inkscape" version="1.1" width="155" height="66" viewBox="0 0 155 66">
<defs>
<path id="font_1_1" d="M.2679901 .31362916H.3039856L.45399476 .08192444C.46398927 .06594849 .48799134 .026992798 .49899293 .011993408 .5059967 0 .5089874 0 .5319977 0H.66999819C.6879883 0 .7029877 0 .7029877 .017990113 .7029877 .025985718 .69699099 .032989503 .6879883 .034988405 .651001 .04298401 .60198977 .10890198 .5779877 .14085388 .57099917 .15083313 .5209961 .2167511 .45399476 .32463075 .54299929 .34062196 .6289978 .37861634 .6289978 .4975891 .6289978 .63656619 .48199464 .6845703 .3639984 .6845703H.049987794C.03199768 .6845703 .015991211 .6845703 .015991211 .66656497 .015991211 .64956668 .034988405 .64956668 .042999269 .64956668 .099990848 .64956668 .10499573 .64256289 .10499573 .5925751V.091918949C.10499573 .04197693 .099990848 .034988405 .042999269 .034988405 .034988405 .034988405 .015991211 .034988405 .015991211 .017990113 .015991211 0 .03199768 0 .049987794 0H.32398988C.34199525 0 .35699464 0 .35699464 .017990113 .35699464 .034988405 .33999635 .034988405 .32899476 .034988405 .27198792 .034988405 .2679901 .04298401 .2679901 .091918949V.31362916M.46099855 .36262513C.4889984 .39961244 .49198915 .4526062 .49198915 .4965973 .49198915 .5445862 .48599244 .59757998 .45399476 .63856509 .49499513 .6295624 .59399417 .5985718 .59399417 .4975891 .59399417 .43260194 .56399539 .3816223 .46099855 .36262513M.2679901 .59558108C.2679901 .61657717 .2679901 .64956668 .32998658 .64956668 .4149933 .64956668 .45700074 .614563 .45700074 .4965973 .45700074 .36761476 .42599488 .3486328 .2679901 .3486328V.59558108M.13198853 .034988405C.13999939 .052963258 .13999939 .08093262 .13999939 .089920047V.594574C.13999939 .6045685 .13999939 .6315613 .13198853 .64956668H.24598694C.23298645 .6335602 .23298645 .61357119 .23298645 .5985718V.089920047C.23298645 .079940799 .23298645 .052963258 .24099732 .034988405H.13198853M.34498597 .31362916C.35198976 .31462098 .35598756 .31562806 .3639984 .31562806 .3789978 .31562806 .40098573 .31762696 .41600038 .31962586 .43099977 .2956543 .5389862 .117889408 .621994 .034988405H.5249939L.34498597 .31362916Z"/>
<path id="font_2_4" d="M.12199402 .06324768C.117996219 .050247194 .11199951 .025222779 .11199951 .022232056 .11199951 .00022888184 .12998963-.009765625 .1459961-.009765625 .1639862-.009765625 .17999268 .0032196046 .18499756 .01222229 .18998719 .021224976 .19799805 .053237916 .20298767 .07424927 .20799256 .09326172 .21899414 .13928223 .22499085 .16429138 .23098755 .18629456 .23699951 .20831299 .24198914 .23132324 .25299073 .27233888 .25498963 .28033448 .28399659 .32136537 .31199647 .3613739 .35899354 .4133911 .43399049 .4133911 .49198915 .4133911 .49299623 .36238099 .49299623 .34336854 .49299623 .28334046 .44999696 .17228699 .43399049 .13027954 .4229889 .102264408 .4189911 .09326172 .4189911 .07624817 .4189911 .023223877 .46299745-.009765625 .5139923-.009765625 .6139984-.009765625 .6579895 .12828064 .6579895 .14328003 .6579895 .15628052 .644989 .15628052 .6419983 .15628052 .6279907 .15628052 .6269989 .15028382 .6230011 .13928223 .59999087 .059249879 .5569916 .018234253 .5169983 .018234253 .49598695 .018234253 .49198915 .032226564 .49198915 .053237916 .49198915 .07624817 .49699403 .089263919 .5149994 .13427735 .5269928 .1652832 .56799319 .2713318 .56799319 .32736207 .56799319 .4243927 .4909973 .44140626 .43798829 .44140626 .35499574 .44140626 .29899598 .39038087 .2689972 .3503723 .2619934 .41940309 .20298767 .44140626 .1619873 .44140626 .11898804 .44140626 .09599304 .4104004 .08299255 .38739015 .06098938 .3503723 .04699707 .29335023 .04699707 .28834535 .04699707 .27534486 .06098938 .27534486 .06399536 .27534486 .07798767 .27534486 .07899475 .27833558 .085998538 .3053589 .100997928 .36437989 .11999512 .4133911 .15899658 .4133911 .18499756 .4133911 .19198609 .39138795 .19198609 .36437989 .19198609 .34536744 .18299866 .3083496 .17599488 .28134156 .16899109 .2543335 .15899658 .21331787 .1539917 .19129944L.12199402 .06324768Z"/>
<path id="font_2_3" d="M.43399049 .08125305C.42900086 .06124878 .41999818 .027236939 .41999818 .022232056 .41999818 .00022888184 .43798829-.009765625 .45399476-.009765625 .47200013-.009765625 .48799134 .0032196046 .49299623 .01222229 .49798585 .021224976 .5059967 .053237916 .5109863 .07424927 .5159912 .09326172 .5269928 .13928223 .5329895 .16429138 .5389862 .18629456 .54499819 .20831299 .5499878 .23132324 .5609894 .27433778 .5609894 .27633668 .58099368 .3073578 .61299136 .35636903 .6629944 .4133911 .7409973 .4133911 .7969971 .4133911 .7999878 .36738587 .7999878 .34336854 .7999878 .28334046 .7569885 .17228699 .7409973 .13027954 .7299957 .102264408 .7259979 .09326172 .7259979 .07624817 .7259979 .023223877 .769989-.009765625 .82099917-.009765625 .92099-.009765625 .96499636 .12828064 .96499636 .14328003 .96499636 .15628052 .95199587 .15628052 .94898989 .15628052 .93499758 .15628052 .9339905 .15028382 .9299927 .13928223 .9069977 .059249879 .8639984 .018234253 .82398989 .018234253 .8029938 .018234253 .798996 .032226564 .798996 .053237916 .798996 .07624817 .80400088 .089263919 .82199099 .13427735 .83399966 .1652832 .875 .2713318 .875 .32736207 .875 .34336854 .875 .38539125 .83799746 .4143982 .82099917 .42739869 .7919922 .44140626 .7449951 .44140626 .6549988 .44140626 .59999087 .38238526 .56799319 .34036256 .55999758 .42539979 .4889984 .44140626 .43798829 .44140626 .35499574 .44140626 .29899598 .39038087 .2689972 .3503723 .2619934 .41940309 .20298767 .44140626 .1619873 .44140626 .11898804 .44140626 .09599304 .4104004 .08299255 .38739015 .06098938 .3503723 .04699707 .29335023 .04699707 .28834535 .04699707 .27534486 .06098938 .27534486 .06399536 .27534486 .07798767 .27534486 .07899475 .27833558 .085998538 .3053589 .100997928 .36437989 .11999512 .4133911 .15899658 .4133911 .18499756 .4133911 .19198609 .39138795 .19198609 .36437989 .19198609 .34536744 .18299866 .3083496 .17599488 .28134156 .16899109 .2543335 .15899658 .21331787 .1539917 .19129944L.12199402 .06324768C.117996219 .050247194 .11199951 .025222779 .11199951 .022232056 .11199951 .00022888184 .12998963-.009765625 .1459961-.009765625 .1639862-.009765625 .17999268 .0032196046 .18499756 .01222229 .18998719 .021224976 .19799805 .053237916 .20298767 .07424927 .20799256 .09326172 .21899414 .13928223 .22499085 .16429138 .23098755 .18629456 .23699951 .20831299 .24198914 .23132324 .25299073 .27233888 .25498963 .28033448 .28399659 .32136537 .31199647 .3613739 .35899354 .4133911 .43399049 .4133911 .49198915 .4133911 .49299623 .36238099 .49299623 .34336854 .49299623 .31835938 .48999024 .3053589 .47599793 .24932862L.43399049 .08125305Z"/>
<path id="font_2_2" d="M.28199769 .66430667C.2829895 .66630557 .28599549 .67930606 .28599549 .68029788 .28599549 .68530276 .28199769 .6943054 .269989 .6943054 .25 .6943054 .16699219 .6863098 .14199829 .6843109 .1349945 .68330386 .12098694 .682312 .12098694 .66130068 .12098694 .64730837 .1349945 .64730837 .1459961 .64730837 .19400025 .64730837 .19400025 .64030459 .19400025 .6322937 .19400025 .6253052 .19198609 .6192932 .18998719 .6103058L.06599426 .116241458C.06298828 .10623169 .06199646 .0952301 .06199646 .085235599 .06199646 .021224976 .11898804-.009765625 .16699219-.009765625 .19099427-.009765625 .22099304-.0017700195 .24699402 .04322815 .2679901 .08023071 .28199769 .13923645 .28199769 .14324951 .28199769 .15625 .2689972 .15625 .2659912 .15625 .2519989 .15625 .25 .15023804 .24598694 .13224793 .23298645 .082229617 .21398926 .018234253 .17098999 .018234253 .14399719 .018234253 .13699341 .04322815 .13699341 .067230228 .13699341 .07823181 .13999939 .097229007 .14299011 .10823059L.28199769 .66430667Z"/>
<path id="font_2_1" d="M.18899536 .07797241C.18099976 .04399109 .1789856 .035995485 .100997928 .035995485 .08299255 .035995485 .070999149 .035995485 .070999149 .01399231 .070999149 0 .08299255 0 .100997928 0H.45799256C.6799927 0 .8929901 .20388794 .8929901 .42175294 .8929901 .5676575 .7919922 .6826172 .6289978 .6826172H.2649994C.24499512 .6826172 .23298645 .6826172 .23298645 .660614 .23298645 .64660647 .24398804 .64660647 .2659912 .64660647 .28199769 .64660647 .28599549 .64660647 .3039856 .64460757 .32398988 .64260867 .32598878 .64060977 .32598878 .63061526 .32598878 .62861636 .32598878 .6236267 .32199098 .6086426L.18899536 .07797241M.41299439 .6126251C.42099 .6436157 .42199708 .64660647 .46398927 .64660647H.59199526C.70399478 .64660647 .7979889 .59065249 .7979889 .45472718 .7979889 .43174745 .7879944 .2588501 .6879883 .14492798 .6489868 .09994507 .5629883 .035995485 .43998719 .035995485H.3039856C.272995 .035995485 .27198792 .036987306 .27198792 .04598999 .27198792 .04698181 .27198792 .051986696 .27598573 .066970828L.41299439 .6126251Z"/>
<path id="font_3_1" d="M.25498963 .38832093H.3829956V.44433595H.24798584V.5383148C.24798584 .5553131 .24798584 .6542969 .35798646 .6542969 .36898805 .6542969 .36898805 .6532898 .36898805 .6522827 .36898805 .6512909 .36799623 .649292 .3659973 .6472931 .3619995 .6412964 .35398866 .626297 .35398866 .6062927 .35398866 .55830386 .3929901 .53730776 .42199708 .53730776 .45498658 .53730776 .4909973 .56030276 .4909973 .6062927 .4909973 .6522827 .44999696 .70028689 .36499024 .70028689 .24899292 .70028689 .1349945 .6532898 .1349945 .5403137V.44433595H.051986696V.38832093H.1349945V.055999757H.067993167V0C.07199097 0 .14898682 .0039978029 .19599915 .0039978029 .23498535 .0039978029 .33198548 0 .33898927 0V.055999757H.25498963V.38832093Z"/>
<path id="font_4_1" d="M.35499574 .75C.16499329 .61598208 .114990238 .40397645 .114990238 .25097657 .114990238 .10997009 .15699768-.10902405 .35499574-.24902344 .36299134-.24902344 .375-.24902344 .375-.23703003 .375-.23103333 .37199403-.22903443 .36499024-.22203064 .23199463-.10203552 .18299866 .067977908 .18299866 .24996948 .18299866 .519989 .28599549 .65197756 .36799623 .72598269 .37199403 .7299957 .375 .73298647 .375 .73799136 .375 .75 .36299134 .75 .35499574 .75Z"/>
<path id="font_3_2" d="M.394989 .2421875 .5329895 .38131715C.5569916 .38832093 .58299258 .38832093 .6259918 .38832093V.44433595C.59399417 .44132997 .5609894 .44032289 .5289917 .44032289 .49499513 .44032289 .42599488 .44332887 .41799928 .44433595V.38832093C.43099977 .38832093 .43798829 .38632203 .44499208 .38232423L.35099793 .28723146 .2539978 .38832093H.2809906V.44433595C.2749939 .44433595 .19599915 .44032289 .1539917 .44032289 .115997318 .44032289 .07899475 .44132997 .040985109 .44433595V.38832093H.115997318L.27999879 .21716309 .13598633 .072006229C.12298584 .05999756 .12199402 .05899048 .09098816 .056991579 .07499695 .055999757 .039993287 .055999757 .034988405 .055999757V0C.066986087 .0029907227 .099990848 .0039978029 .13198853 .0039978029 .15899658 .0039978029 .22999573 .0009918213 .24299622 0V.055999757C.22698975 .055999757 .22299195 .057998659 .21598816 .06300354L.32398988 .17111206 .43499757 .055999757H.40899659V0C.4099884 0 .48999024 .0039978029 .5359955 .0039978029 .57299807 .0039978029 .61099246 .0029907227 .647995 0V.055999757H.57398989L.394989 .2421875Z"/>
<path id="font_5_3" d="M.6009979 .31976319C.6009979 .3918152 .6009979 .6660156 .33999635 .6660156 .07899475 .6660156 .07899475 .3918152 .07899475 .31976319 .07899475 .2467041 .07899475-.022460938 .33999635-.022460938 .6009979-.022460938 .6009979 .2467041 .6009979 .31976319M.33999635 .010528564C.30299378 .010528564 .21899414 .023544312 .19400025 .12461853 .17999268 .17866516 .1789856 .24971009 .1789856 .33177186 .1789856 .405838 .1789856 .47488404 .19499207 .5319214 .21998596 .6159973 .29699708 .63301089 .33999635 .63301089 .4139862 .63301089 .46699525 .5949707 .4869995 .5249176 .5009918 .47387696 .5009918 .39082337 .5009918 .33177186 .5009918 .26371766 .5009918 .18266297 .48599244 .12261963 .45999146 .025543213 .37998963 .010528564 .33999635 .010528564Z"/>
<path id="font_4_2" d="M.08999634 .75C.08299255 .75 .070999149 .75 .070999149 .73799136 .070999149 .73298647 .07398987 .7299957 .07998657 .72299197 .1659851 .64398196 .2619934 .5089874 .2619934 .25097657 .2619934 .04197693 .19699097-.11602783 .08898926-.21403504 .07199097-.23103333 .070999149-.23202515 .070999149-.23703003 .070999149-.24203491 .07398987-.24902344 .083999637-.24902344 .09599304-.24902344 .19099427-.18302918 .25698854-.058029176 .30099488 .024978638 .32998658 .13298035 .32998658 .24996948 .32998658 .39097596 .28799439 .60998538 .08999634 .75Z"/>
<path id="font_6_1" d="M.24598694 .082962039C.23799134 .052993776 .23699951 .04499817 .1599884 .04499817 .1349945 .04499817 .11898804 .04499817 .11898804 .016998291 .11898804 0 .1349945 0 .1519928 0H.55400088C.78900149 0 1.0279999 .18989563 1.0279999 .41175843 1.0279999 .5766449 .8959961 .6826172 .723999 .6826172H.31399537C.2939911 .6826172 .2789917 .6826172 .2789917 .65460208 .2789917 .637619 .29100038 .637619 .31599427 .637619 .32598878 .637619 .35899354 .637619 .37998963 .6316223 .37998963 .6196289 .37998963 .61763 .3769989 .6066284L.24598694 .082962039M.47698976 .6046295C.4850006 .6356201 .4850006 .637619 .5269928 .637619H.68499758C.7549896 .637619 .82199099 .6196289 .8639984 .5826416 .901001 .54867556 .9229889 .5076904 .9229889 .43774415 .9229889 .37478639 .8989868 .24786377 .82398989 .16390991 .7489929 .07997131 .6380005 .04499817 .5369873 .04499817H.37098695C.36299134 .04499817 .34899903 .04499817 .33898927 .04699707 .33999635 .055984498 .33999635 .0579834 .34199525 .064971927L.47698976 .6046295Z"/>
<path id="font_5_1" d="M.44099427 .7259979C.44099427 .72698977 .44400025 .73098757 .44400025 .73599246 .44400025 .73999026 .44198609 .75 .4269867 .75 .40699769 .75 .1499939 .58999636 .1499939 .25 .1499939-.08900452 .40699769-.25 .4269867-.25 .44198609-.25 .44400025-.2400055 .44400025-.23600769 .44400025-.2290039 .43998719-.22601319 .43598939-.2230072 .25898744-.08200073 .22698975 .12098694 .22698975 .25 .22698975 .49499513 .33999635 .6559906 .44099427 .7259979Z"/>
<path id="font_7_2" d="M.29100038 .09082031C.23999024 .09082031 .23098755 .09082031 .21099854 .104904178 .19699097 .115982059 .18798828 .13409424 .18798828 .15116883 .18798828 .16316223 .18899536 .16516114 .19198609 .17115784 .23799134 .15016175 .29499818 .14515686 .33799745 .14515686 .5299988 .14515686 .58200076 .23815918 .58200076 .29815675 .58200076 .3491516 .548996 .3831482 .5419922 .3891449 .56199648 .39613343 .59098818 .4021454 .60798647 .4041443 .60398867 .3931427 .60398867 .3911438 .60398867 .3831482 .60398867 .34614564 .6329956 .32414247 .6629944 .32414247 .68699648 .32414247 .72099307 .34214784 .72099307 .3831482 .72099307 .4201355 .6899872 .46113587 .6309967 .46113587 .6069946 .46113587 .55400088 .45614625 .49798585 .4201355 .44099427 .45013429 .375 .45214845 .33898927 .45214845 .14698792 .45214845 .09498596 .35914613 .09498596 .29914857 .09498596 .24215698 .13198853 .21116638 .1499939 .19515991 .13398743 .1751709 .12098694 .14717102 .12098694 .111953739 .12098694 .07081604 .13699341 .03981018 .1579895 .016815186 .10998535 .0048065187 .056991579-.020187378 .056991579-.07215881 .056991579-.14512635 .1599884-.203125 .3789978-.203125 .526001-.203125 .70098879-.1741333 .70098879-.06916809 .70098879-.03918457 .6899872 .033813478 .59098818 .06781006 .5219879 .09082031 .45999146 .09082031 .34899903 .09082031H.29100038M.33898927 .20117188C.22898865 .20117188 .21998596 .25315858 .21998596 .29815675 .21998596 .34214784 .22698975 .39613343 .33799745 .39613343 .44799806 .39613343 .45700074 .34414674 .45700074 .29914857 .45700074 .25515748 .44999696 .20117188 .33898927 .20117188M.33898927-.02418518C.45199586-.02418518 .59599307-.02418518 .59599307-.07116699 .59599307-.105148319 .5329895-.14712525 .3789978-.14712525 .22499085-.14712525 .1619873-.105148319 .1619873-.07116699 .1619873-.02418518 .24499512-.02418518 .28199769-.02418518H.33898927Z"/>
<path id="font_8_1" d="M.61099246 .25C.61099246 .3841095 .5019989 .49316407 .36799623 .49316407 .23399353 .49316407 .125 .3841095 .125 .25 .125 .115875247 .23399353 .0068359377 .36799623 .0068359377 .5019989 .0068359377 .61099246 .115875247 .61099246 .25M.36799623 .06283569C.2649994 .06283569 .18099976 .14689636 .18099976 .25 .18099976 .35308839 .2649994 .43714906 .36799623 .43714906 .47099305 .43714906 .5549927 .35308839 .5549927 .25 .5549927 .14689636 .47099305 .06283569 .36799623 .06283569Z"/>
<path id="font_7_1" d="M.2979889 .3773346H.44898988V.44433595H.2899933V.5331421C.2899933 .5491333 .2899933 .59013369 .32398988 .61813357 .35598756 .6431427 .39698792 .6461334 .4139862 .6461334 .42599488 .6461334 .42599488 .6451416 .42599488 .6431427 .42599488 .6421356 .42599488 .6411438 .4249878 .6401367 .4189911 .6281433 .41600038 .61613467 .41600038 .60313418 .41600038 .5521393 .45700074 .5291443 .4889984 .5291443 .526001 .5291443 .5629883 .55514529 .5629883 .60313418 .5629883 .6521454 .519989 .70214846 .4249878 .70214846 .2899933 .70214846 .17298889 .6491394 .17298889 .535141V.44433595H.07299805V.3773346H.17298889V.066986087H.100997928V0C.14698792 .0029907227 .19299317 .0039978029 .23899842 .0039978029 .29499818 .0039978029 .35299684 .0019989014 .3880005 0V.066986087H.2979889V.3773346Z"/>
<path id="font_5_2" d="M.3909912 .25C.3909912 .58898928 .13398743 .75 .11399841 .75 .09799194 .75 .09799194 .73799136 .09799194 .73599246 .09799194 .73498538 .09799194 .72898867 .10398865 .72299197 .2539978 .60398867 .31399537 .42999269 .31399537 .25 .31399537 .1599884 .29699708 .06599426 .2630005-.01600647 .21499634-.13000489 .1519928-.18501282 .102996829-.2250061 .099990848-.227005 .09799194-.23200989 .09799194-.23600769 .09799194-.23800659 .09799194-.25 .11399841-.25 .13398743-.25 .3909912-.0900116 .3909912 .25Z"/>
<path id="font_7_3" d="M.46398927 .23516846 .6239929 .3773346H.71699526V.44433595C.6749878 .44032289 .6459961 .44032289 .60598757 .44032289 .5649872 .44032289 .5239868 .44132997 .48298646 .44433595V.3773346H.49899293L.4019928 .29023744 .30499269 .3763275C.30999757 .3773346 .31199647 .3773346 .31698609 .3773346V.44433595C.272995 .44132997 .22898865 .44032289 .18499756 .44032289 .14099121 .44032289 .11199951 .44032289 .06599426 .44433595V.3773346H.1539917L.32699586 .22416687 .15098572 .066986087H.057998659V0C.099990848 .0039978029 .1289978 .0039978029 .16899109 .0039978029 .20999146 .0039978029 .25099183 .0029907227 .2919922 0V.066986087H.27598573L.3889923 .16810608 .5019989 .067993167C.49699403 .066986087 .49499513 .066986087 .48999024 .066986087V0C.5339966 .0029907227 .5779877 .0039978029 .621994 .0039978029 .66600039 .0039978029 .69499209 .0039978029 .7409973 0V.066986087H.6529999L.46398927 .23516846Z"/>
<path id="font_5_4" d="M.8909912 .3408203C.9049988 .3408203 .9299927 .3408203 .9299927 .3688202 .9299927 .39682008 .901001 .39682008 .8860016 .39682008H.14099121C.12599182 .39682008 .09700012 .39682008 .09700012 .3688202 .09700012 .3408203 .12298584 .3408203 .13598633 .3408203H.8909912M.8860016 .10316467C.901001 .10316467 .9299927 .10316467 .9299927 .13116455 .9299927 .15917969 .9049988 .15917969 .8909912 .15917969H.13598633C.12199402 .15917969 .09700012 .15917969 .09700012 .13116455 .09700012 .10316467 .12599182 .10316467 .14099121 .10316467H.8860016Z"/>
<path id="font_7_4" d="M.6719971 .3773346H.7449951V.44433595C.71798709 .44232179 .6859894 .44032289 .6439972 .44032289 .60798647 .44032289 .5669861 .44132997 .5309906 .44433595V.3773346H.5779877L.44499208 .12609864 .2829895 .3773346H.32299806V.44433595C.2749939 .44132997 .20999146 .44032289 .18499756 .44032289 .14299011 .44032289 .099990848 .44132997 .057998659 .44433595V.3773346H.13398743L.36999513 .011993408C.37599183 .0019836426 .37599183 .0009765625 .37599183-.000015258789 .37599183-.0030212403 .36099244-.031051636 .35198976-.047058107 .33299256-.08409119 .2999878-.14614868 .18399048-.14614868 .17799378-.14614868 .16999817-.14614868 .16999817-.14414978 .16999817-.14215088 .17098999-.1411438 .17298889-.1391449 .18499756-.12313843 .18699646-.1051178 .18699646-.09410095 .18699646-.048065187 .15299988-.023040772 .115997318-.023040772 .07899475-.023040772 .04499817-.048065187 .04499817-.09410095 .04499817-.15216065 .09899902-.20214844 .18199158-.20214844 .24798584-.20214844 .375-.18016052 .43299867-.0710907L.6719971 .3773346Z"/>
</defs>
<use data-text="R" xlink:href="#font_1_1" transform="matrix(9.963397,0,0,-9.962899,1.1899719,13.557989)"/>
<use data-text="n" xlink:href="#font_2_4" transform="matrix(6.974358,0,0,-6.9740097,8.386551,9.942883)"/>
<use data-text="R" xlink:href="#font_1_1" transform="matrix(9.963397,0,0,-9.962899,121.617618,13.557989)"/>
<use data-text="m" xlink:href="#font_2_3" transform="matrix(6.974358,0,0,-6.9740097,128.81421,9.942883)"/>
<use data-text="R" xlink:href="#font_1_1" transform="matrix(9.963397,0,0,-9.962899,123.87279,65.18354)"/>
<use data-text="l" xlink:href="#font_2_2" transform="matrix(6.974358,0,0,-6.9740097,131.06938,61.56843)"/>
<path transform="matrix(1.00008,0,0,-1.00003,68.787387,35.93866)" stroke-width=".39848" stroke-linecap="butt" stroke-miterlimit="10" stroke-linejoin="miter" fill="none" stroke="#000000" d="M-50.48004 24.87115H47.93683"/>
<path transform="matrix(1.00008,0,0,-1.00003,116.92729,11.066763)" stroke-width=".39848" stroke-linecap="round" stroke-linejoin="round" fill="none" stroke="#000000" d="M-2.07213 2.39091C-1.69356 .95633-.84995 .27893 0 0-.84995-.27893-1.69356-.95633-2.07213-2.39091"/>
<use data-text="D" xlink:href="#font_2_1" transform="matrix(6.974358,0,0,-6.9740097,55.09929,6.9767897)"/>
<use data-text="f" xlink:href="#font_3_1" transform="matrix(6.974358,0,0,-6.9740097,61.828844,6.9767897)"/>
<use data-text="(" xlink:href="#font_4_1" transform="matrix(6.974358,0,0,-6.9740097,65.453128,6.9767897)"/>
<use data-text="x" xlink:href="#font_3_2" transform="matrix(6.974358,0,0,-6.9740097,68.56737,6.9767897)"/>
<use data-text="0" xlink:href="#font_5_3" transform="matrix(4.9816987,0,0,-4.9814498,73.32875,7.9728186)"/>
<use data-text=")" xlink:href="#font_4_2" transform="matrix(6.974358,0,0,-6.9740097,77.21706,6.9767897)"/>
<path transform="matrix(1.00008,0,0,-1.00003,68.787387,35.93866)" stroke-width=".39848" stroke-linecap="butt" stroke-miterlimit="10" stroke-linejoin="miter" fill="none" stroke="#000000" d="M-50.48004 20.2857 50.22348-22.51282"/>
<path transform="matrix(.9203936,.39112176,.3911413,-.92034766,119.19824,58.530069)" stroke-width=".39848" stroke-linecap="round" stroke-linejoin="round" fill="none" stroke="#000000" d="M-2.07213 2.39091C-1.69356 .95633-.84995 .27893 0 0-.84995-.27893-1.69356-.95633-2.07213-2.39091"/>
<path transform="matrix(1.00008,0,0,-1.00003,68.787387,35.93866)" d="M-44.5282-5.95366H44.63836V3.5707398H-44.5282Z" fill="#ffffff"/>
<use data-text="D" xlink:href="#font_6_1" transform="matrix(4.9816987,0,0,-4.9814498,26.403,38.25073)"/>
<use data-text="(" xlink:href="#font_5_1" transform="matrix(4.9816987,0,0,-4.9814498,32.105455,38.25073)"/>
<use data-text="g" xlink:href="#font_7_2" transform="matrix(4.9816987,0,0,-4.9814498,34.803667,38.25073)"/>
<use data-text="&#x25e6;" xlink:href="#font_8_1" transform="matrix(4.9816987,0,0,-4.9814498,38.68199,38.25073)"/>
<use data-text="f" xlink:href="#font_7_1" transform="matrix(4.9816987,0,0,-4.9814498,42.34929,38.25073)"/>
<use data-text=")" xlink:href="#font_5_2" transform="matrix(4.9816987,0,0,-4.9814498,45.369539,38.25073)"/>
<use data-text="(" xlink:href="#font_5_1" transform="matrix(4.9816987,0,0,-4.9814498,48.064638,38.25073)"/>
<use data-text="x" xlink:href="#font_7_3" transform="matrix(4.9816987,0,0,-4.9814498,50.76596,38.25073)"/>
<use data-text="0" xlink:href="#font_5_3" transform="matrix(4.9816987,0,0,-4.9814498,54.744279,39.744775)"/>
<use data-text=")" xlink:href="#font_5_2" transform="matrix(4.9816987,0,0,-4.9814498,58.632585,38.25073)"/>
<use data-text="=" xlink:href="#font_5_4" transform="matrix(4.9816987,0,0,-4.9814498,61.327684,38.25073)"/>
<use data-text="D" xlink:href="#font_6_1" transform="matrix(4.9816987,0,0,-4.9814498,66.45221,38.25073)"/>
<use data-text="g" xlink:href="#font_7_2" transform="matrix(4.9816987,0,0,-4.9814498,72.15367,38.25073)"/>
<use data-text="(" xlink:href="#font_5_1" transform="matrix(4.9816987,0,0,-4.9814498,76.032,38.25073)"/>
<use data-text="y" xlink:href="#font_7_4" transform="matrix(4.9816987,0,0,-4.9814498,78.73021,38.25073)"/>
<use data-text="0" xlink:href="#font_5_3" transform="matrix(4.9816987,0,0,-4.9814498,82.70853,39.744775)"/>
<use data-text=")" xlink:href="#font_5_2" transform="matrix(4.9816987,0,0,-4.9814498,86.59683,38.25073)"/>
<use data-text="D" xlink:href="#font_6_1" transform="matrix(4.9816987,0,0,-4.9814498,89.29605,38.25073)"/>
<use data-text="f" xlink:href="#font_7_1" transform="matrix(4.9816987,0,0,-4.9814498,94.99751,38.25073)"/>
<use data-text="(" xlink:href="#font_5_1" transform="matrix(4.9816987,0,0,-4.9814498,98.01776,38.25073)"/>
<use data-text="x" xlink:href="#font_7_3" transform="matrix(4.9816987,0,0,-4.9814498,100.71597,38.25073)"/>
<use data-text="0" xlink:href="#font_5_3" transform="matrix(4.9816987,0,0,-4.9814498,104.6953,39.744775)"/>
<use data-text=")" xlink:href="#font_5_2" transform="matrix(4.9816987,0,0,-4.9814498,108.5836,38.25073)"/>
<path transform="matrix(1.00008,0,0,-1.00003,68.787387,35.93866)" stroke-width=".39848" stroke-linecap="butt" stroke-miterlimit="10" stroke-linejoin="miter" fill="none" stroke="#000000" d="M60.21008 18.53134V-16.53769"/>
<path transform="matrix(0,1.00003,1.00008,0,129.00229,52.676084)" stroke-width=".39848" stroke-linecap="round" stroke-linejoin="round" fill="none" stroke="#000000" d="M-2.07213 2.39091C-1.69356 .95633-.84995 .27893 0 0-.84995-.27893-1.69356-.95633-2.07213-2.39091"/>
<use data-text="D" xlink:href="#font_6_1" transform="matrix(4.9816987,0,0,-4.9814498,131.34839,36.26167)"/>
<use data-text="g" xlink:href="#font_7_2" transform="matrix(4.9816987,0,0,-4.9814498,137.05084,36.26167)"/>
<use data-text="(" xlink:href="#font_5_1" transform="matrix(4.9816987,0,0,-4.9814498,140.92917,36.26167)"/>
<use data-text="y" xlink:href="#font_7_4" transform="matrix(4.9816987,0,0,-4.9814498,143.62738,36.26167)"/>
<use data-text="0" xlink:href="#font_5_3" transform="matrix(4.9816987,0,0,-4.9814498,147.6057,37.755716)"/>
<use data-text=")" xlink:href="#font_5_2" transform="matrix(4.9816987,0,0,-4.9814498,151.494,36.26167)"/>
</svg>
