<svg xmlns="http://www.w3.org/2000/svg" xmlns:xlink="http://www.w3.org/1999/xlink" xmlns:inkscape="http://www.inkscape.org/namespaces/inkscape" version="1.1" width="129" height="64" viewBox="0 0 129 64">
<defs>
<path id="font_1_1" d="M.15899658 .07795715C.14898682 .038986207 .14698792 .0309906 .067993167 .0309906 .050994874 .0309906 .039993287 .0309906 .039993287 .011993408 .039993287 0 .04899597 0 .067993167 0H.39898683C.6069946 0 .80400088 .21087647 .80400088 .42974855 .80400088 .5706482 .71899417 .6826172 .56900027 .6826172H.23298645C.21398926 .6826172 .20298767 .6826172 .20298767 .66360476 .20298767 .6516113 .21199036 .6516113 .23199463 .6516113 .24499512 .6516113 .2630005 .65060427 .2749939 .6496124 .29100038 .6476135 .29699708 .64460757 .29699708 .6336212 .29699708 .6296234 .29599 .62661746 .29299928 .614624L.15899658 .07795715M.375 .6136322C.38398744 .64860537 .38598634 .6516113 .42900086 .6516113H.5359955C.6339874 .6516113 .71699526 .5986328 .71699526 .46672059 .71699526 .41775514 .69699099 .25386048 .6119995 .1439209 .58299258 .10694885 .5039978 .0309906 .3809967 .0309906H.2679901C.2539978 .0309906 .2519989 .0309906 .24598694 .03199768 .23599243 .032989503 .23298645 .033996583 .23298645 .041992189 .23298645 .04498291 .23298645 .04698181 .23799134 .064971927L.375 .6136322Z"/>
<path id="font_2_1" d="M.6589966 .5C.6759949 .5 .69400027 .5 .69400027 .519989 .69400027 .5399933 .6759949 .5399933 .6589966 .5399933H.3899994C.21899414 .5399933 .08299255 .4099884 .08299255 .25 .08299255 .08999634 .21899414-.040008546 .3899994-.040008546H.6589966C.6759949-.040008546 .69400027-.040008546 .69400027-.020004273 .69400027 0 .6759949 0 .6589966 0H.3919983C.23599243 0 .12298584 .115997318 .12298584 .25 .12298584 .38398744 .23599243 .5 .3919983 .5H.6589966Z"/>
<path id="font_3_1" d="M.2679901 .31362916H.3039856L.45399476 .08192444C.46398927 .06594849 .48799134 .026992798 .49899293 .011993408 .5059967 0 .5089874 0 .5319977 0H.66999819C.6879883 0 .7029877 0 .7029877 .017990113 .7029877 .025985718 .69699099 .032989503 .6879883 .034988405 .651001 .04298401 .60198977 .10890198 .5779877 .14085388 .57099917 .15083313 .5209961 .2167511 .45399476 .32463075 .54299929 .34062196 .6289978 .37861634 .6289978 .4975891 .6289978 .63656619 .48199464 .6845703 .3639984 .6845703H.049987794C.03199768 .6845703 .015991211 .6845703 .015991211 .66656497 .015991211 .64956668 .034988405 .64956668 .042999269 .64956668 .099990848 .64956668 .10499573 .64256289 .10499573 .5925751V.091918949C.10499573 .04197693 .099990848 .034988405 .042999269 .034988405 .034988405 .034988405 .015991211 .034988405 .015991211 .017990113 .015991211 0 .03199768 0 .049987794 0H.32398988C.34199525 0 .35699464 0 .35699464 .017990113 .35699464 .034988405 .33999635 .034988405 .32899476 .034988405 .27198792 .034988405 .2679901 .04298401 .2679901 .091918949V.31362916M.46099855 .36262513C.4889984 .39961244 .49198915 .4526062 .49198915 .4965973 .49198915 .5445862 .48599244 .59757998 .45399476 .63856509 .49499513 .6295624 .59399417 .5985718 .59399417 .4975891 .59399417 .43260194 .56399539 .3816223 .46099855 .36262513M.2679901 .59558108C.2679901 .61657717 .2679901 .64956668 .32998658 .64956668 .4149933 .64956668 .45700074 .614563 .45700074 .4965973 .45700074 .36761476 .42599488 .3486328 .2679901 .3486328V.59558108M.13198853 .034988405C.13999939 .052963258 .13999939 .08093262 .13999939 .089920047V.594574C.13999939 .6045685 .13999939 .6315613 .13198853 .64956668H.24598694C.23298645 .6335602 .23298645 .61357119 .23298645 .5985718V.089920047C.23298645 .079940799 .23298645 .052963258 .24099732 .034988405H.13198853M.34498597 .31362916C.35198976 .31462098 .35598756 .31562806 .3639984 .31562806 .3789978 .31562806 .40098573 .31762696 .41600038 .31962586 .43099977 .2956543 .5389862 .117889408 .621994 .034988405H.5249939L.34498597 .31362916Z"/>
<path id="font_4_3" d="M.12199402 .06324768C.117996219 .050247194 .11199951 .025222779 .11199951 .022232056 .11199951 .00022888184 .12998963-.009765625 .1459961-.009765625 .1639862-.009765625 .17999268 .0032196046 .18499756 .01222229 .18998719 .021224976 .19799805 .053237916 .20298767 .07424927 .20799256 .09326172 .21899414 .13928223 .22499085 .16429138 .23098755 .18629456 .23699951 .20831299 .24198914 .23132324 .25299073 .27233888 .25498963 .28033448 .28399659 .32136537 .31199647 .3613739 .35899354 .4133911 .43399049 .4133911 .49198915 .4133911 .49299623 .36238099 .49299623 .34336854 .49299623 .28334046 .44999696 .17228699 .43399049 .13027954 .4229889 .102264408 .4189911 .09326172 .4189911 .07624817 .4189911 .023223877 .46299745-.009765625 .5139923-.009765625 .6139984-.009765625 .6579895 .12828064 .6579895 .14328003 .6579895 .15628052 .644989 .15628052 .6419983 .15628052 .6279907 .15628052 .6269989 .15028382 .6230011 .13928223 .59999087 .059249879 .5569916 .018234253 .5169983 .018234253 .49598695 .018234253 .49198915 .032226564 .49198915 .053237916 .49198915 .07624817 .49699403 .089263919 .5149994 .13427735 .5269928 .1652832 .56799319 .2713318 .56799319 .32736207 .56799319 .4243927 .4909973 .44140626 .43798829 .44140626 .35499574 .44140626 .29899598 .39038087 .2689972 .3503723 .2619934 .41940309 .20298767 .44140626 .1619873 .44140626 .11898804 .44140626 .09599304 .4104004 .08299255 .38739015 .06098938 .3503723 .04699707 .29335023 .04699707 .28834535 .04699707 .27534486 .06098938 .27534486 .06399536 .27534486 .07798767 .27534486 .07899475 .27833558 .085998538 .3053589 .100997928 .36437989 .11999512 .4133911 .15899658 .4133911 .18499756 .4133911 .19198609 .39138795 .19198609 .36437989 .19198609 .34536744 .18299866 .3083496 .17599488 .28134156 .16899109 .2543335 .15899658 .21331787 .1539917 .19129944L.12199402 .06324768Z"/>
<path id="font_1_2" d="M.70799258 .23292542C.70999148 .23791504 .71299746 .24491883 .71299746 .24691773 .71299746 .24790955 .71299746 .2579193 .70098879 .2579193 .69200137 .2579193 .6899872 .25190736 .6879883 .24591065 .6230011 .097961429 .58599856 .0309906 .4149933 .0309906H.2689972C.25498963 .0309906 .25299073 .0309906 .24699402 .03199768 .23699951 .032989503 .23399353 .033996583 .23399353 .041992189 .23399353 .04498291 .23399353 .04698181 .23899842 .06498718L.30699159 .33789063H.4059906C.4909973 .33789063 .4909973 .31689454 .4909973 .29190064 .4909973 .28489686 .4909973 .27290345 .48399354 .24291992 .48199464 .23791504 .48098756 .23492432 .48098756 .23191834 .48098756 .22692871 .4850006 .220932 .49398805 .220932 .5019989 .220932 .5049896 .22592163 .5089874 .24092102L.56599429 .47477723C.56599429 .48077394 .5609894 .48576356 .55400088 .48576356 .54499819 .48576356 .54299929 .47976686 .5399933 .4677887 .5189972 .39186097 .5009918 .36888124 .40899659 .36888124H.31498719L.375 .60964968C.38398744 .64460757 .3849945 .64860537 .42900086 .64860537H.56999209C.69200137 .64860537 .7220001 .61964419 .7220001 .5377197 .7220001 .51374819 .7220001 .51174929 .71798709 .48477174 .71798709 .47877503 .71699526 .4717865 .71699526 .46678163 .71699526 .461792 .7200012 .45480348 .72898867 .45480348 .73999026 .45480348 .7409973 .46080018 .7429962 .47976686L.7630005 .65260317C.7659912 .6796112 .7609863 .6796112 .73599246 .6796112H.23098755C.21099854 .6796112 .20098877 .6796112 .20098877 .65960696 .20098877 .64860537 .20999146 .64860537 .22898865 .64860537 .2659912 .64860537 .2939911 .64860537 .2939911 .6306305 .2939911 .6266327 .2939911 .6246338 .2889862 .6066437L.15699768 .07797241C.14698792 .038986207 .14498902 .0309906 .06599426 .0309906 .04899597 .0309906 .037994386 .0309906 .037994386 .011993408 .037994386 0 .04699707 0 .06599426 0H.58499148C.60798647 0 .60899356 .0009918213 .6159973 .016998291L.70799258 .23292542Z"/>
<path id="font_4_2" d="M.43399049 .08125305C.42900086 .06124878 .41999818 .027236939 .41999818 .022232056 .41999818 .00022888184 .43798829-.009765625 .45399476-.009765625 .47200013-.009765625 .48799134 .0032196046 .49299623 .01222229 .49798585 .021224976 .5059967 .053237916 .5109863 .07424927 .5159912 .09326172 .5269928 .13928223 .5329895 .16429138 .5389862 .18629456 .54499819 .20831299 .5499878 .23132324 .5609894 .27433778 .5609894 .27633668 .58099368 .3073578 .61299136 .35636903 .6629944 .4133911 .7409973 .4133911 .7969971 .4133911 .7999878 .36738587 .7999878 .34336854 .7999878 .28334046 .7569885 .17228699 .7409973 .13027954 .7299957 .102264408 .7259979 .09326172 .7259979 .07624817 .7259979 .023223877 .769989-.009765625 .82099917-.009765625 .92099-.009765625 .96499636 .12828064 .96499636 .14328003 .96499636 .15628052 .95199587 .15628052 .94898989 .15628052 .93499758 .15628052 .9339905 .15028382 .9299927 .13928223 .9069977 .059249879 .8639984 .018234253 .82398989 .018234253 .8029938 .018234253 .798996 .032226564 .798996 .053237916 .798996 .07624817 .80400088 .089263919 .82199099 .13427735 .83399966 .1652832 .875 .2713318 .875 .32736207 .875 .34336854 .875 .38539125 .83799746 .4143982 .82099917 .42739869 .7919922 .44140626 .7449951 .44140626 .6549988 .44140626 .59999087 .38238526 .56799319 .34036256 .55999758 .42539979 .4889984 .44140626 .43798829 .44140626 .35499574 .44140626 .29899598 .39038087 .2689972 .3503723 .2619934 .41940309 .20298767 .44140626 .1619873 .44140626 .11898804 .44140626 .09599304 .4104004 .08299255 .38739015 .06098938 .3503723 .04699707 .29335023 .04699707 .28834535 .04699707 .27534486 .06098938 .27534486 .06399536 .27534486 .07798767 .27534486 .07899475 .27833558 .085998538 .3053589 .100997928 .36437989 .11999512 .4133911 .15899658 .4133911 .18499756 .4133911 .19198609 .39138795 .19198609 .36437989 .19198609 .34536744 .18299866 .3083496 .17599488 .28134156 .16899109 .2543335 .15899658 .21331787 .1539917 .19129944L.12199402 .06324768C.117996219 .050247194 .11199951 .025222779 .11199951 .022232056 .11199951 .00022888184 .12998963-.009765625 .1459961-.009765625 .1639862-.009765625 .17999268 .0032196046 .18499756 .01222229 .18998719 .021224976 .19799805 .053237916 .20298767 .07424927 .20799256 .09326172 .21899414 .13928223 .22499085 .16429138 .23098755 .18629456 .23699951 .20831299 .24198914 .23132324 .25299073 .27233888 .25498963 .28033448 .28399659 .32136537 .31199647 .3613739 .35899354 .4133911 .43399049 .4133911 .49198915 .4133911 .49299623 .36238099 .49299623 .34336854 .49299623 .31835938 .48999024 .3053589 .47599793 .24932862L.43399049 .08125305Z"/>
<path id="font_4_1" d="M.28199769 .66430667C.2829895 .66630557 .28599549 .67930606 .28599549 .68029788 .28599549 .68530276 .28199769 .6943054 .269989 .6943054 .25 .6943054 .16699219 .6863098 .14199829 .6843109 .1349945 .68330386 .12098694 .682312 .12098694 .66130068 .12098694 .64730837 .1349945 .64730837 .1459961 .64730837 .19400025 .64730837 .19400025 .64030459 .19400025 .6322937 .19400025 .6253052 .19198609 .6192932 .18998719 .6103058L.06599426 .116241458C.06298828 .10623169 .06199646 .0952301 .06199646 .085235599 .06199646 .021224976 .11898804-.009765625 .16699219-.009765625 .19099427-.009765625 .22099304-.0017700195 .24699402 .04322815 .2679901 .08023071 .28199769 .13923645 .28199769 .14324951 .28199769 .15625 .2689972 .15625 .2659912 .15625 .2519989 .15625 .25 .15023804 .24598694 .13224793 .23298645 .082229617 .21398926 .018234253 .17098999 .018234253 .14399719 .018234253 .13699341 .04322815 .13699341 .067230228 .13699341 .07823181 .13999939 .097229007 .14299011 .10823059L.28199769 .66430667Z"/>
<path id="font_5_1" d="M.25498963 .38832093H.3829956V.44433595H.24798584V.5383148C.24798584 .5553131 .24798584 .6542969 .35798646 .6542969 .36898805 .6542969 .36898805 .6532898 .36898805 .6522827 .36898805 .6512909 .36799623 .649292 .3659973 .6472931 .3619995 .6412964 .35398866 .626297 .35398866 .6062927 .35398866 .55830386 .3929901 .53730776 .42199708 .53730776 .45498658 .53730776 .4909973 .56030276 .4909973 .6062927 .4909973 .6522827 .44999696 .70028689 .36499024 .70028689 .24899292 .70028689 .1349945 .6532898 .1349945 .5403137V.44433595H.051986696V.38832093H.1349945V.055999757H.067993167V0C.07199097 0 .14898682 .0039978029 .19599915 .0039978029 .23498535 .0039978029 .33198548 0 .33898927 0V.055999757H.25498963V.38832093Z"/>
<path id="font_5_2" d="M.23799134 .08886719C.20298767 .08886719 .18899536 .08886719 .17199707 .10295105 .1619873 .11100769 .14898682 .12609864 .14898682 .1502533 .14898682 .15626526 .14898682 .16725159 .1559906 .17625427 .20799256 .15126038 .2659912 .15126038 .2869873 .15126038 .45599366 .15126038 .5059967 .23924256 .5059967 .30021668 .5059967 .35121156 .47499085 .38519288 .46598817 .39318849 .48199464 .39918519 .5049896 .40618897 .526001 .40818788 .5239868 .40318299 .522995 .39518739 .522995 .38919068 .522995 .35321046 .5529938 .33821107 .57299807 .33821107 .59599307 .33821107 .6239929 .35520936 .6239929 .38919068 .6239929 .42018128 .598999 .45619203 .548996 .45619203 .5079956 .45619203 .46299745 .44018556 .43299867 .41818238 .37399293 .4501953 .31098939 .4501953 .2869873 .4501953 .12399292 .4501953 .068984989 .36520387 .068984989 .30122376 .068984989 .24424744 .10398865 .21224976 .12199402 .19726563 .09899902 .16925049 .08999634 .1401825 .08999634 .10899353 .08999634 .07185364 .10398865 .038864137 .12998963 .012863159 .09498596 .004852295 .039993287-.020141602 .039993287-.07215881 .039993287-.13217163 .10998535-.20117188 .32299806-.20117188 .5069885-.20117188 .60598757-.1481781 .60598757-.06915283 .60598757-.04914856 .6029968 .022857666 .519989 .06185913 .45999146 .08886719 .3939972 .08886719 .2919922 .08886719H.23799134M.2869873 .19726563C.18798828 .19726563 .18798828 .26123048 .18798828 .30021668 .18798828 .34020997 .18798828 .40419007 .2869873 .40419007 .3869934 .40419007 .3869934 .34120179 .3869934 .30122376 .3869934 .26023866 .3869934 .19726563 .2869873 .19726563M.35299684-.019134522C.37799073-.019134522 .5079956-.019134522 .5079956-.07215881 .5079956-.105163577 .46598817-.15518189 .32299806-.15518189 .18598938-.15518189 .13798523-.108169559 .13798523-.07115173 .13798523-.019134522 .20698548-.019134522 .21998596-.019134522H.35299684Z"/>
<path id="font_6_1" d="M.5069885 .24998474C.5069885 .3710022 .4099884 .4650116 .2919922 .4650116 .17199707 .4650116 .07699585 .36799623 .07699585 .25097657 .07699585 .1299591 .17399597 .035949708 .2919922 .035949708 .4119873 .035949708 .5069885 .13296509 .5069885 .24998474M.2919922 .08496094C.19799805 .08496094 .12599182 .16096497 .12599182 .24998474 .12599182 .34300233 .19999695 .41601563 .2919922 .41601563 .38598634 .41601563 .45799256 .33999635 .45799256 .25097657 .45799256 .15795899 .38398744 .08496094 .2919922 .08496094Z"/>
</defs>
<use data-text="D" xlink:href="#font_1_1" transform="matrix(9.9626,0,0,-9.963496,1.1889954,11.427769)"/>
<use data-text="&#x2282;" xlink:href="#font_2_1" transform="matrix(9.9626,0,0,-9.963496,12.480988,11.427769)"/>
<use data-text="R" xlink:href="#font_3_1" transform="matrix(9.9626,0,0,-9.963496,22.996994,11.427769)"/>
<use data-text="n" xlink:href="#font_4_3" transform="matrix(6.9738,0,0,-6.9744279,30.192002,7.8114397)"/>
<use data-text="E" xlink:href="#font_1_2" transform="matrix(9.9626,0,0,-9.963496,92.024,11.427769)"/>
<use data-text="&#x2282;" xlink:href="#font_2_1" transform="matrix(9.9626,0,0,-9.963496,102.72002,11.427769)"/>
<use data-text="R" xlink:href="#font_3_1" transform="matrix(9.9626,0,0,-9.963496,113.23601,11.427769)"/>
<use data-text="m" xlink:href="#font_4_2" transform="matrix(6.9738,0,0,-6.9744279,120.431018,7.8114397)"/>
<use data-text="R" xlink:href="#font_3_1" transform="matrix(9.9626,0,0,-9.963496,104.88501,63.44545)"/>
<use data-text="l" xlink:href="#font_4_1" transform="matrix(6.9738,0,0,-6.9744279,112.08002,59.829126)"/>
<path transform="matrix(1,0,0,-1.00009,64.59599,34.0048)" stroke-width=".39848" stroke-linecap="butt" stroke-miterlimit="10" stroke-linejoin="miter" fill="none" stroke="#000000" d="M-24.48558 25.06592H22.53874"/>
<path transform="matrix(1,0,0,-1.00009,87.333988,8.936623)" stroke-width=".39848" stroke-linecap="round" stroke-linejoin="round" fill="none" stroke="#000000" d="M-2.07213 2.39091C-1.69356 .95633-.84995 .27893 0 0-.84995-.27893-1.69356-.95633-2.07213-2.39091"/>
<use data-text="f" xlink:href="#font_5_1" transform="matrix(6.9738,0,0,-6.9744279,62.009996,6.59033)"/>
<path transform="matrix(1,0,0,-1.00009,64.59599,34.0048)" stroke-width=".39848" stroke-linecap="butt" stroke-miterlimit="10" stroke-linejoin="miter" fill="none" stroke="#000000" d="M-34.34496 18.3366 35.45177-21.29465"/>
<path transform="matrix(.86955,.49377445,.49373,-.86962828,100.22101,55.399724)" stroke-width=".39848" stroke-linecap="round" stroke-linejoin="round" fill="none" stroke="#000000" d="M-2.07213 2.39091C-1.69356 .95633-.84995 .27893 0 0-.84995-.27893-1.69356-.95633-2.07213-2.39091"/>
<path transform="matrix(1,0,0,-1.00009,64.59599,34.0048)" d="M-7.59239-6.82387H9.045691V3.6691099H-7.59239Z" fill="#ffffff"/>
<use data-text="g" xlink:href="#font_5_2" transform="matrix(6.9738,0,0,-6.9744279,59.150995,37.326097)"/>
<use data-text="&#x25e6;" xlink:href="#font_6_1" transform="matrix(6.9738,0,0,-6.9744279,63.787988,37.326097)"/>
<use data-text="f" xlink:href="#font_5_1" transform="matrix(6.9738,0,0,-6.9744279,67.86999,37.326097)"/>
<path transform="matrix(1,0,0,-1.00009,64.59599,34.0048)" stroke-width=".39848" stroke-linecap="butt" stroke-miterlimit="10" stroke-linejoin="miter" fill="none" stroke="#000000" d="M45.41814 18.3366V-16.73245"/>
<path transform="matrix(0,1.00009,1,0,110.01413,50.93801)" stroke-width=".39848" stroke-linecap="round" stroke-linejoin="round" fill="none" stroke="#000000" d="M-2.07213 2.39091C-1.69356 .95633-.84995 .27893 0 0-.84995-.27893-1.69356-.95633-2.07213-2.39091"/>
<use data-text="g" xlink:href="#font_5_2" transform="matrix(6.9738,0,0,-6.9744279,112.35999,34.273824)"/>
</svg>
